<svg width="400" height="400" viewBox="0 0 400 400" fill="none" xmlns="http://www.w3.org/2000/svg">
<path d="M199.107 8.03571L238.854 51.6614L295.089 33.754L307.699 91.4086L365.353 104.018L347.446 160.253L391.071 200L347.446 239.747L365.353 295.982L307.699 308.591L295.089 366.246L238.854 348.339L199.107 391.964L159.36 348.339L103.125 366.246L90.5157 308.591L32.8612 295.982L50.7685 239.747L7.14286 200L50.7685 160.253L32.8612 104.018L90.5157 91.4086L103.125 33.754L159.36 51.6614L199.107 8.03571Z" fill="#FF0420"/>
<path fill-rule="evenodd" clip-rule="evenodd" d="M177.69 196.077C181.611 196.077 184.789 199.256 184.789 203.178C184.789 211.021 191.146 217.378 198.987 217.378C206.828 217.378 213.185 211.021 213.185 203.178C213.185 199.256 216.363 196.077 220.284 196.077C224.204 196.077 227.382 199.256 227.382 203.178C227.382 218.863 214.669 231.579 198.987 231.579C183.304 231.579 170.591 218.863 170.591 203.178C170.591 199.256 173.769 196.077 177.69 196.077Z" fill="white"/>
<path d="M131.547 138.388L135.651 148.796C139.277 157.991 146.541 165.265 155.711 168.882L166.154 173.001L155.711 177.121C146.541 180.738 139.277 188.012 135.651 197.207L131.547 207.615L127.443 197.207C123.817 188.012 116.553 180.738 107.384 177.121L96.94 173.001L107.384 168.882C116.553 165.265 123.817 157.991 127.443 148.796L131.547 138.388Z" fill="white"/>
<path d="M268.201 138.388L272.305 148.796C275.931 157.991 283.195 165.265 292.365 168.882L302.808 173.001L292.364 177.121C283.195 180.738 275.931 188.012 272.305 197.207L268.201 207.615L264.097 197.207C260.471 188.012 253.207 180.738 244.038 177.121L233.594 173.001L244.038 168.882C253.207 165.265 260.471 157.991 264.097 148.796L268.201 138.388Z" fill="white"/>
</svg>
