<svg width="192" height="192" viewBox="0 0 192 192" fill="none" xmlns="http://www.w3.org/2000/svg">
<path d="M96 0L101.525 11.7009L108.531 0.821297L112.481 13.1433L120.847 3.27112L123.155 16.0033L132.738 7.30756L133.365 20.2322L144 12.8616L142.935 25.7574L154.441 19.8381L151.702 32.4846L163.882 28.1178L159.515 40.2985L172.162 37.5589L166.243 49.0654L179.138 48L171.768 58.6355L184.692 59.2624L175.997 68.8448L188.729 71.1534L178.857 79.5188L191.179 83.4695L180.299 90.4747L192 96L180.299 101.525L191.179 108.531L178.857 112.481L188.729 120.847L175.997 123.155L184.692 132.738L171.768 133.365L179.138 144L166.243 142.935L172.162 154.441L159.515 151.702L163.882 163.882L151.702 159.515L154.441 172.162L142.935 166.243L144 179.138L133.365 171.768L132.738 184.692L123.155 175.997L120.847 188.729L112.481 178.857L108.531 191.179L101.525 180.299L96 192L90.4747 180.299L83.4695 191.179L79.5188 178.857L71.1534 188.729L68.8448 175.997L59.2624 184.692L58.6355 171.768L48 179.138L49.0654 166.243L37.5589 172.162L40.2985 159.515L28.1178 163.882L32.4846 151.702L19.8381 154.441L25.7574 142.935L12.8616 144L20.2322 133.365L7.30756 132.738L16.0033 123.155L3.27112 120.847L13.1433 112.481L0.821297 108.531L11.7009 101.525L0 96L11.7009 90.4747L0.821297 83.4695L13.1433 79.5188L3.27112 71.1534L16.0033 68.8448L7.30756 59.2624L20.2322 58.6355L12.8616 48L25.7574 49.0654L19.8381 37.5589L32.4846 40.2985L28.1178 28.1178L40.2985 32.4846L37.5589 19.8381L49.0654 25.7574L48 12.8616L58.6355 20.2322L59.2624 7.30756L68.8448 16.0033L71.1534 3.27112L79.5188 13.1433L83.4695 0.821297L90.4747 11.7009L96 0Z" fill="#FF0420"/>
</svg>
