<svg width="400" height="400" viewBox="0 0 400 400" fill="none" xmlns="http://www.w3.org/2000/svg">
<path d="M200 0L211.511 24.3768L226.105 1.71103L234.336 27.3818L251.764 6.81483L256.573 33.3403L276.537 15.2241L277.843 42.1504L300 26.7949L297.78 53.6613L321.752 41.3293L316.045 67.6762L341.421 58.5786L332.324 83.9551L358.671 78.2477L346.339 102.22L373.205 100L357.85 122.157L384.776 123.463L366.66 143.427L393.185 148.236L372.618 165.664L398.289 173.895L375.623 188.489L400 200L375.623 211.511L398.289 226.105L372.618 234.336L393.185 251.764L366.66 256.573L384.776 276.537L357.85 277.843L373.205 300L346.339 297.78L358.671 321.752L332.324 316.045L341.421 341.421L316.045 332.324L321.752 358.671L297.78 346.339L300 373.205L277.843 357.85L276.537 384.776L256.573 366.66L251.764 393.185L234.336 372.618L226.105 398.289L211.511 375.623L200 400L188.489 375.623L173.895 398.289L165.664 372.618L148.236 393.185L143.427 366.66L123.463 384.776L122.157 357.85L100 373.205L102.22 346.339L78.2477 358.671L83.9551 332.324L58.5786 341.421L67.6762 316.045L41.3293 321.752L53.6613 297.78L26.7949 300L42.1504 277.843L15.2241 276.537L33.3403 256.573L6.81483 251.764L27.3818 234.336L1.71103 226.105L24.3768 211.511L0 200L24.3768 188.489L1.71103 173.895L27.3818 165.664L6.81483 148.236L33.3403 143.427L15.2241 123.463L42.1504 122.157L26.7949 100L53.6613 102.22L41.3293 78.2477L67.6762 83.9551L58.5786 58.5786L83.9551 67.6762L78.2477 41.3293L102.22 53.6613L100 26.7949L122.157 42.1504L123.463 15.2241L143.427 33.3403L148.236 6.81483L165.664 27.3818L173.895 1.71103L188.489 24.3768L200 0Z" fill="#FF0420"/>
<path fill-rule="evenodd" clip-rule="evenodd" d="M179.873 213.632C181.699 213.632 183.179 215.104 183.179 216.921C183.179 226.005 190.58 233.368 199.711 233.368C208.841 233.368 216.242 226.005 216.242 216.921C216.242 215.104 217.723 213.632 219.549 213.632C221.375 213.632 222.855 215.104 222.855 216.921C222.855 229.638 212.493 239.947 199.711 239.947C186.928 239.947 176.566 229.638 176.566 216.921C176.566 215.104 178.046 213.632 179.873 213.632Z" fill="white"/>
<path d="M140.196 178.681L142.402 184.245C144.351 189.16 148.254 193.048 153.182 194.982L158.794 197.184L153.182 199.387C148.254 201.32 144.351 205.208 142.402 210.124L140.196 215.688L137.991 210.124C136.042 205.208 132.139 201.32 127.211 199.387L121.598 197.184L127.211 194.982C132.139 193.048 136.042 189.16 137.991 184.245L140.196 178.681Z" fill="white"/>
<path d="M259.225 178.681L261.43 184.245C263.379 189.16 267.283 193.048 272.21 194.982L277.823 197.184L272.21 199.387C267.283 201.32 263.379 205.208 261.43 210.124L259.225 215.688L257.019 210.124C255.071 205.208 251.167 201.32 246.239 199.387L240.627 197.184L246.239 194.982C251.167 193.048 255.071 189.16 257.019 184.245L259.225 178.681Z" fill="white"/>
</svg>
