<svg width="144" height="32" viewBox="0 0 144 32" fill="none" xmlns="http://www.w3.org/2000/svg">
<g clip-path="url(#clip0_1287_15019)">
<path d="M131.367 3.57483H108.725C101.761 3.57483 96.1152 9.22037 96.1152 16.1845C96.1152 23.1486 101.761 28.7942 108.725 28.7942H131.367C138.331 28.7942 143.977 23.1486 143.977 16.1845C143.977 9.22037 138.331 3.57483 131.367 3.57483Z" fill="#DB3A28"/>
<path d="M107.585 21.9829C107.477 21.9829 107.389 21.9485 107.32 21.8798C107.251 21.8111 107.217 21.7228 107.217 21.6147V12.0424C107.217 11.9344 107.251 11.846 107.32 11.7773C107.389 11.7086 107.477 11.6742 107.585 11.6742H109.19C109.298 11.6742 109.386 11.7086 109.455 11.7773C109.524 11.846 109.558 11.9344 109.558 12.0424V15.7241H113.549V12.0424C113.549 11.9344 113.583 11.846 113.652 11.7773C113.721 11.7086 113.809 11.6742 113.917 11.6742H115.523C115.63 11.6742 115.719 11.7086 115.788 11.7773C115.856 11.846 115.891 11.9344 115.891 12.0424V21.6147C115.891 21.7228 115.856 21.8111 115.788 21.8798C115.719 21.9485 115.63 21.9829 115.523 21.9829H113.917C113.809 21.9829 113.721 21.9485 113.652 21.8798C113.583 21.8111 113.549 21.7228 113.549 21.6147V17.8152H109.558V21.6147C109.558 21.7228 109.524 21.8111 109.455 21.8798C109.386 21.9485 109.298 21.9829 109.19 21.9829H107.585ZM120.726 22.1301C120.156 22.1301 119.65 22.0026 119.209 21.7473C118.777 21.4822 118.438 21.1043 118.193 20.6133C117.957 20.1126 117.839 19.5088 117.839 18.8019V14.6932C117.839 14.5852 117.874 14.4968 117.942 14.4281C118.011 14.3594 118.094 14.325 118.193 14.325H119.754C119.862 14.325 119.95 14.3594 120.019 14.4281C120.087 14.4968 120.122 14.5852 120.122 14.6932V18.7136C120.122 19.8131 120.603 20.363 121.565 20.363C122.026 20.363 122.39 20.2207 122.655 19.9359C122.93 19.6413 123.067 19.234 123.067 18.7136V14.6932C123.067 14.5852 123.101 14.4968 123.17 14.4281C123.239 14.3594 123.327 14.325 123.435 14.325H124.996C125.094 14.325 125.178 14.3594 125.247 14.4281C125.315 14.4968 125.35 14.5852 125.35 14.6932V21.6147C125.35 21.7228 125.315 21.8111 125.247 21.8798C125.178 21.9485 125.094 21.9829 124.996 21.9829H123.553C123.445 21.9829 123.357 21.9485 123.288 21.8798C123.219 21.8111 123.185 21.7228 123.185 21.6147V21.0404C122.93 21.3938 122.601 21.6639 122.198 21.8503C121.796 22.0368 121.305 22.1301 120.726 22.1301ZM131.651 22.1301C131.091 22.1301 130.625 22.0368 130.252 21.8503C129.878 21.6539 129.574 21.4085 129.339 21.114V21.6147C129.339 21.7228 129.304 21.8111 129.236 21.8798C129.167 21.9485 129.078 21.9829 128.97 21.9829H127.571C127.463 21.9829 127.375 21.9485 127.306 21.8798C127.237 21.8111 127.203 21.7228 127.203 21.6147V11.8951C127.203 11.7871 127.237 11.6988 127.306 11.6301C127.375 11.5613 127.463 11.527 127.571 11.527H129.088C129.186 11.527 129.27 11.5613 129.339 11.6301C129.407 11.6988 129.442 11.7871 129.442 11.8951V15.1055C129.687 14.8307 129.991 14.6098 130.355 14.4428C130.718 14.2661 131.15 14.1778 131.651 14.1778C132.161 14.1778 132.603 14.2661 132.976 14.4428C133.359 14.6098 133.683 14.8503 133.948 15.1645C134.213 15.4688 134.414 15.8321 134.552 16.2542C134.699 16.6764 134.777 17.1427 134.787 17.6533C134.797 17.83 134.802 17.9969 134.802 18.154C134.802 18.3012 134.797 18.4681 134.787 18.6547C134.768 19.1751 134.684 19.6511 134.537 20.0831C134.4 20.5052 134.198 20.8734 133.933 21.1876C133.678 21.4919 133.359 21.7276 132.976 21.8945C132.603 22.0515 132.161 22.1301 131.651 22.1301ZM130.988 20.363C131.361 20.363 131.655 20.2844 131.872 20.1273C132.088 19.9604 132.24 19.7444 132.328 19.4794C132.426 19.2143 132.485 18.9247 132.505 18.6105C132.524 18.3061 132.524 18.0018 132.505 17.6974C132.485 17.3833 132.426 17.0936 132.328 16.8286C132.24 16.5635 132.088 16.3524 131.872 16.1953C131.655 16.0284 131.361 15.945 130.988 15.945C130.635 15.945 130.345 16.0235 130.119 16.1806C129.903 16.3377 129.736 16.5389 129.618 16.7844C129.51 17.02 129.451 17.2753 129.442 17.5502C129.432 17.7269 129.427 17.9085 129.427 18.0951C129.427 18.2816 129.432 18.4681 129.442 18.6547C129.461 18.9492 129.52 19.224 129.618 19.4794C129.717 19.7347 129.878 19.9456 130.104 20.1126C130.33 20.2796 130.625 20.363 130.988 20.363Z" fill="white"/>
<path d="M0.836194 17.0124C0.706599 17.0124 0.606458 16.9712 0.53577 16.8887C0.476864 16.8062 0.459192 16.7002 0.482755 16.5706L2.92148 5.08385C2.94505 4.95426 3.00984 4.84822 3.11588 4.76576C3.22191 4.68329 3.33972 4.64205 3.46931 4.64205H8.27609C9.79587 4.64205 10.9151 4.99549 11.6338 5.70237C12.3642 6.39747 12.5939 7.38709 12.323 8.67126C12.1462 9.50773 11.7928 10.2146 11.2626 10.7919C10.7443 11.3692 10.1258 11.8051 9.40709 12.0996L10.9092 16.4469C10.921 16.4823 10.9269 16.5117 10.9269 16.5353C10.9269 16.5588 10.921 16.5942 10.9092 16.6413C10.8974 16.7356 10.8444 16.8239 10.7502 16.9064C10.6559 16.9771 10.5558 17.0124 10.4497 17.0124H8.11704C7.89319 17.0124 7.74004 16.9594 7.65757 16.8534C7.58688 16.7356 7.53386 16.6295 7.49852 16.5353L6.3145 12.6474H4.49429L3.66371 16.5706C3.64014 16.7002 3.57535 16.8062 3.46931 16.8887C3.36328 16.9712 3.24547 17.0124 3.11588 17.0124H0.836194ZM5.02445 10.1557H7.07439C7.62811 10.1557 8.06991 10.0202 8.39979 9.74925C8.72967 9.47828 8.94762 9.10716 9.05365 8.63591C9.1479 8.17644 9.089 7.80533 8.87693 7.52258C8.67665 7.23983 8.28787 7.09845 7.71058 7.09845H5.67831L5.02445 10.1557ZM16.6244 17.1891C15.7055 17.1891 14.9338 17.0242 14.3094 16.6943C13.6968 16.3527 13.2726 15.8461 13.037 15.1745C12.8132 14.503 12.7896 13.6783 12.9663 12.7005C12.9899 12.618 13.0135 12.512 13.037 12.3824C13.0606 12.2528 13.0841 12.1526 13.1077 12.0819C13.3433 11.1512 13.7203 10.356 14.2387 9.69623C14.7571 9.0247 15.3933 8.5181 16.1473 8.17644C16.9013 7.823 17.7319 7.64628 18.639 7.64628C19.6758 7.64628 20.4828 7.85246 21.0601 8.2648C21.6492 8.67715 22.0379 9.23676 22.2264 9.94364C22.4267 10.6505 22.4326 11.4575 22.2441 12.3647L22.1734 12.7888C22.1499 12.9184 22.0792 13.0244 21.9614 13.1069C21.8553 13.1894 21.7375 13.2306 21.6079 13.2306H15.9706C15.9706 13.2424 15.9647 13.2601 15.9529 13.2836C15.9529 13.3072 15.947 13.3308 15.9352 13.3543C15.8763 13.696 15.8704 14.0082 15.9175 14.2909C15.9647 14.5737 16.0825 14.7975 16.271 14.9625C16.4595 15.1274 16.7128 15.2099 17.0309 15.2099C17.2547 15.2099 17.455 15.1745 17.6317 15.1038C17.8084 15.0214 17.9616 14.933 18.0912 14.8388C18.2208 14.7327 18.3268 14.6444 18.4093 14.5737C18.5389 14.4559 18.639 14.3852 18.7097 14.3616C18.7804 14.3263 18.8864 14.3086 19.0278 14.3086H21.2191C21.3369 14.3086 21.4253 14.344 21.4842 14.4146C21.5431 14.4735 21.5549 14.5619 21.5196 14.6797C21.4607 14.88 21.3075 15.1215 21.0601 15.4043C20.8245 15.687 20.4946 15.9698 20.0705 16.2525C19.6463 16.5235 19.1456 16.7473 18.5683 16.9241C17.9911 17.1008 17.3431 17.1891 16.6244 17.1891ZM16.3417 11.4811H19.3282L19.3459 11.4458C19.4402 11.0688 19.4519 10.7389 19.3813 10.4561C19.3223 10.1734 19.1928 9.95542 18.9925 9.80226C18.804 9.64911 18.5507 9.57253 18.2326 9.57253C17.9145 9.57253 17.6258 9.64911 17.3666 9.80226C17.1192 9.95542 16.9072 10.1734 16.7305 10.4561C16.5655 10.7389 16.4359 11.0688 16.3417 11.4458V11.4811ZM27.4538 17.0124C26.6409 17.0124 25.9694 16.8946 25.4392 16.659C24.9209 16.4116 24.5674 16.0346 24.3789 15.528C24.1904 15.0096 24.1786 14.344 24.3436 13.531L25.0681 10.138H23.6897C23.5601 10.138 23.46 10.0968 23.3893 10.0143C23.3304 9.93186 23.3127 9.82582 23.3363 9.69623L23.6367 8.2648C23.6603 8.13521 23.7251 8.02918 23.8311 7.94671C23.9371 7.86424 24.049 7.823 24.1669 7.823H25.5629L26.1815 4.90713C26.205 4.77754 26.2639 4.6715 26.3582 4.58904C26.4642 4.50657 26.582 4.46533 26.7116 4.46533H28.7616C28.8794 4.46533 28.9736 4.50657 29.0443 4.58904C29.115 4.6715 29.1386 4.77754 29.115 4.90713L28.4965 7.823H30.7055C30.8351 7.823 30.9293 7.86424 30.9882 7.94671C31.0589 8.02918 31.0825 8.13521 31.0589 8.2648L30.7585 9.69623C30.7349 9.82582 30.6701 9.93186 30.5641 10.0143C30.4581 10.0968 30.3461 10.138 30.2283 10.138H28.0017L27.3301 13.2836C27.283 13.5546 27.2594 13.7902 27.2594 13.9905C27.2594 14.179 27.3183 14.3263 27.4362 14.4323C27.554 14.5383 27.7484 14.5914 28.0193 14.5914H29.4331C29.5509 14.5914 29.6393 14.6326 29.6982 14.7151C29.7689 14.7975 29.7924 14.9036 29.7689 15.0332L29.4508 16.5706C29.4272 16.7002 29.3624 16.8062 29.2564 16.8887C29.1621 16.9712 29.0502 17.0124 28.9206 17.0124H27.4538ZM31.2516 17.0124C31.1221 17.0124 31.0219 16.9712 30.9512 16.8887C30.8805 16.8062 30.857 16.7002 30.8805 16.5706L32.6477 8.2648C32.6713 8.14699 32.7361 8.04685 32.8421 7.96438C32.9482 7.87013 33.066 7.823 33.1956 7.823H35.2278C35.3574 7.823 35.4517 7.87013 35.5106 7.96438C35.5813 8.04685 35.6048 8.14699 35.5813 8.2648L35.4399 8.97168C35.7227 8.61824 36.0761 8.34138 36.5002 8.1411C36.9243 7.92903 37.4486 7.823 38.073 7.823H39.0803C39.1981 7.823 39.2865 7.86424 39.3454 7.94671C39.4161 8.02918 39.4397 8.13521 39.4161 8.2648L39.045 10.085C39.0214 10.2028 38.9566 10.3089 38.8506 10.4031C38.7446 10.4856 38.6267 10.5268 38.4972 10.5268H36.783C36.2999 10.5268 35.8994 10.6623 35.5813 10.9333C35.2632 11.1925 35.0511 11.5636 34.9451 12.0466L33.9731 16.5706C33.9496 16.7002 33.8848 16.8062 33.7787 16.8887C33.6845 16.9712 33.5726 17.0124 33.443 17.0124H31.2516ZM43.2873 17.1891C42.3448 17.1891 41.5555 17.0301 40.9193 16.712C40.2831 16.3939 39.8237 15.9403 39.5409 15.3513C39.2699 14.7504 39.1992 14.0376 39.3288 13.2129C39.3524 12.9773 39.3936 12.7122 39.4525 12.4177C39.5232 12.1114 39.5939 11.8463 39.6646 11.6225C39.8884 10.786 40.2301 10.0732 40.6896 9.48417C41.149 8.8951 41.7381 8.44152 42.4568 8.12343C43.1754 7.80533 44.0296 7.64628 45.0192 7.64628C45.9499 7.64628 46.7334 7.80533 47.3696 8.12343C48.0058 8.44152 48.4711 8.8951 48.7657 9.48417C49.0602 10.0732 49.1427 10.786 49.0131 11.6225C48.9659 11.8463 48.9129 12.1114 48.854 12.4177C48.7951 12.7122 48.7362 12.9773 48.6773 13.2129C48.4535 14.0376 48.1177 14.7504 47.67 15.3513C47.2223 15.9403 46.6391 16.3939 45.9205 16.712C45.2018 17.0301 44.3241 17.1891 43.2873 17.1891ZM43.5524 15.0332C44.0826 15.0332 44.5126 14.8741 44.8425 14.556C45.1724 14.2379 45.4198 13.7608 45.5847 13.1246C45.6318 12.9479 45.6848 12.7122 45.7438 12.4177C45.8144 12.1232 45.8616 11.8876 45.8851 11.7108C45.9912 11.0864 45.9617 10.6152 45.7968 10.2971C45.6318 9.9672 45.2843 9.80226 44.7541 9.80226C44.2475 9.80226 43.8234 9.9672 43.4817 10.2971C43.1519 10.6152 42.9104 11.0864 42.7572 11.7108C42.7101 11.8876 42.6512 12.1232 42.5805 12.4177C42.5216 12.7122 42.4803 12.9479 42.4568 13.1246C42.3507 13.7608 42.3743 14.2379 42.5275 14.556C42.6924 14.8741 43.0341 15.0332 43.5524 15.0332ZM50.2567 17.0124C50.1389 17.0124 50.0447 16.9712 49.974 16.8887C49.9033 16.8062 49.8797 16.7002 49.9033 16.5706L52.342 5.08385C52.3656 4.95426 52.4304 4.84822 52.5364 4.76576C52.6424 4.68329 52.7544 4.64205 52.8722 4.64205H57.5729C58.2916 4.64205 58.9396 4.72452 59.5168 4.88946C60.1059 5.0544 60.5948 5.3077 60.9836 5.64935C61.3724 5.99101 61.6434 6.42103 61.7965 6.93941C61.9497 7.446 61.9556 8.04096 61.8142 8.72427C61.5197 10.0791 60.9188 11.0805 60.0117 11.7285C59.1163 12.3765 57.9087 12.7005 56.3889 12.7005H54.0032L53.1903 16.5706C53.1667 16.7002 53.1019 16.8062 52.9959 16.8887C52.9016 16.9712 52.7897 17.0124 52.6601 17.0124H50.2567ZM54.4627 10.2617H56.4949C56.978 10.2617 57.408 10.1321 57.785 9.87295C58.1738 9.61376 58.4271 9.21909 58.5449 8.68893C58.6038 8.38262 58.6156 8.11164 58.5802 7.87602C58.5449 7.64039 58.4212 7.45189 58.2091 7.31052C58.0088 7.16914 57.6966 7.09845 57.2725 7.09845H55.1519L54.4627 10.2617ZM67.0766 17.1891C65.9573 17.1891 65.0325 17.0065 64.3021 16.6413C63.5834 16.2643 63.0768 15.7224 62.7823 15.0155C62.4877 14.2968 62.4288 13.425 62.6056 12.4C62.6998 11.8934 62.8058 11.3574 62.9237 10.7919C63.0532 10.2146 63.177 9.66678 63.2948 9.1484C63.5422 8.14699 63.9663 7.29874 64.5671 6.60364C65.168 5.90854 65.9102 5.37838 66.7938 5.01316C67.6892 4.64794 68.6847 4.46533 69.7804 4.46533C70.664 4.46533 71.4239 4.57725 72.0601 4.8011C72.6962 5.01316 73.2087 5.3018 73.5975 5.66702C73.9863 6.03225 74.2573 6.43281 74.4104 6.86872C74.5636 7.30463 74.5989 7.73464 74.5165 8.15877C74.5047 8.2648 74.4517 8.35316 74.3574 8.42385C74.2749 8.49454 74.1748 8.52988 74.057 8.52988H71.4769C71.3591 8.52988 71.2707 8.51221 71.2118 8.47687C71.1529 8.42974 71.1058 8.36494 71.0704 8.28247C71.0351 8.10575 70.9585 7.92314 70.8407 7.73464C70.7229 7.53436 70.5403 7.36353 70.2929 7.22216C70.0454 7.08078 69.692 7.01009 69.2325 7.01009C68.5728 7.01009 68.0073 7.18681 67.536 7.54025C67.0766 7.89369 66.7526 8.45919 66.5641 9.23676C66.4463 9.74336 66.3285 10.2558 66.2106 10.7742C66.1046 11.2808 66.0045 11.7933 65.9102 12.3117C65.7688 13.1364 65.8572 13.7313 66.1751 14.0965C66.5052 14.4618 67.0059 14.6444 67.6774 14.6444C68.1133 14.6444 68.5198 14.5678 68.8968 14.4146C69.2856 14.2615 69.6154 14.0259 69.8864 13.7078C70.1574 13.3779 70.34 12.9597 70.4342 12.4531L70.5049 12.1173H68.8438C68.7142 12.1173 68.614 12.0761 68.5433 11.9936C68.4844 11.8993 68.4668 11.7874 68.4903 11.6578L68.7731 10.3501C68.7966 10.2205 68.8614 10.1145 68.9675 10.032C69.0735 9.93775 69.1854 9.89062 69.3032 9.89062H73.7742C73.9038 9.89062 73.9981 9.93775 74.057 10.032C74.1159 10.1145 74.1336 10.2205 74.11 10.3501L73.6859 12.3647C73.4856 13.3779 73.0732 14.2438 72.4488 14.9625C71.8362 15.6811 71.0645 16.2349 70.1338 16.6236C69.2149 17.0006 68.1958 17.1891 67.0766 17.1891ZM74.9179 17.0124C74.8001 17.0124 74.7059 16.9712 74.6352 16.8887C74.5645 16.8062 74.5409 16.7002 74.5645 16.5706L77.0032 5.08385C77.0268 4.95426 77.0916 4.84822 77.1976 4.76576C77.3037 4.68329 77.4156 4.64205 77.5334 4.64205H85.6625C85.7921 4.64205 85.8863 4.68329 85.9452 4.76576C86.0159 4.84822 86.0395 4.95426 86.0159 5.08385L85.6448 6.86872C85.6213 6.99831 85.5565 7.10434 85.4504 7.18681C85.3444 7.26928 85.2266 7.31052 85.097 7.31052H79.654L79.1062 9.90829H84.1957C84.3253 9.90829 84.4196 9.95542 84.4785 10.0497C84.5492 10.1321 84.5727 10.2382 84.5492 10.3678L84.1604 12.135C84.1486 12.2528 84.0897 12.3588 83.9837 12.4531C83.8776 12.5355 83.7598 12.5768 83.6302 12.5768H78.5407L77.6748 16.5706C77.6512 16.7002 77.5864 16.8062 77.4804 16.8887C77.3861 16.9712 77.2742 17.0124 77.1446 17.0124H74.9179Z" fill="#1F2937"/>
<path d="M15.525 28.8818C15.1244 28.8818 14.771 28.8288 14.4646 28.7228C14.1642 28.6167 13.9168 28.4606 13.7224 28.2545C13.5339 28.0424 13.4043 27.7891 13.3336 27.4946C13.263 27.2 13.26 26.8643 13.3248 26.4873C13.366 26.2458 13.4161 25.9866 13.475 25.7097C13.5398 25.4328 13.6017 25.1678 13.6606 24.9145C13.7902 24.4196 13.9816 23.9926 14.2349 23.6332C14.4941 23.2739 14.824 23 15.2245 22.8115C15.6251 22.6171 16.1022 22.5199 16.656 22.5199C17.0506 22.5199 17.4011 22.57 17.7075 22.6701C18.0138 22.7703 18.2671 22.9146 18.4673 23.1031C18.6735 23.2916 18.8178 23.5095 18.9003 23.757C18.9828 24.0044 18.9946 24.2753 18.9357 24.5699C18.9298 24.6229 18.9091 24.6671 18.8738 24.7024C18.8385 24.7377 18.7943 24.7554 18.7413 24.7554H17.893C17.8223 24.7554 17.7664 24.7407 17.7251 24.7112C17.6898 24.6759 17.6721 24.6199 17.6721 24.5434C17.6898 24.1664 17.5955 23.9042 17.3894 23.757C17.1891 23.6097 16.9181 23.5361 16.5764 23.5361C16.1818 23.5361 15.8372 23.648 15.5426 23.8718C15.2481 24.0898 15.039 24.452 14.9153 24.9586C14.7916 25.4417 14.6855 25.9365 14.5972 26.4431C14.5088 26.9497 14.553 27.3149 14.7297 27.5388C14.9123 27.7567 15.201 27.8657 15.5957 27.8657C15.9373 27.8657 16.2407 27.795 16.5058 27.6536C16.7767 27.5064 16.9976 27.2413 17.1685 26.8584C17.2097 26.7759 17.2509 26.72 17.2922 26.6905C17.3334 26.661 17.3864 26.6463 17.4512 26.6463H18.3083C18.3613 26.6463 18.4025 26.664 18.432 26.6993C18.4615 26.7347 18.4703 26.7789 18.4585 26.8319C18.3819 27.1146 18.2641 27.3826 18.1051 27.6359C17.9519 27.8834 17.7516 28.1013 17.5042 28.2898C17.2627 28.4724 16.977 28.6167 16.6471 28.7228C16.3231 28.8288 15.9491 28.8818 15.525 28.8818ZM21.0353 28.8818C20.5876 28.8818 20.2136 28.7994 19.9131 28.6344C19.6186 28.4695 19.4065 28.2368 19.2769 27.9364C19.1532 27.6359 19.1238 27.2855 19.1886 26.8849C19.2063 26.7789 19.2298 26.6493 19.2593 26.4961C19.2946 26.3429 19.327 26.2134 19.3565 26.1073C19.4625 25.7009 19.6245 25.3504 19.8424 25.0558C20.0663 24.7554 20.349 24.5227 20.6907 24.3578C21.0382 24.1929 21.4476 24.1104 21.9189 24.1104C22.3666 24.1104 22.7377 24.1929 23.0322 24.3578C23.3327 24.5227 23.5477 24.7554 23.6773 25.0558C23.8069 25.3504 23.8393 25.7009 23.7745 26.1073C23.7509 26.2134 23.7244 26.3429 23.6949 26.4961C23.6655 26.6493 23.636 26.7789 23.6066 26.8849C23.5005 27.2855 23.3385 27.6359 23.1206 27.9364C22.9085 28.2368 22.6287 28.4695 22.2812 28.6344C21.9395 28.7994 21.5242 28.8818 21.0353 28.8818ZM21.1237 28.0071C21.4418 28.0071 21.7098 27.9099 21.9277 27.7155C22.1516 27.5152 22.3136 27.2236 22.4137 26.8407C22.4373 26.7523 22.4638 26.6375 22.4932 26.4961C22.5227 26.3547 22.5463 26.2399 22.5639 26.1515C22.6287 25.7745 22.6022 25.4859 22.4844 25.2856C22.3666 25.0853 22.1486 24.9852 21.8305 24.9852C21.5183 24.9852 21.2503 25.0853 21.0265 25.2856C20.8026 25.4859 20.6436 25.7745 20.5493 26.1515C20.5258 26.2399 20.4963 26.3547 20.461 26.4961C20.4315 26.6375 20.4109 26.7523 20.3991 26.8407C20.3343 27.2236 20.3579 27.5152 20.4698 27.7155C20.5876 27.9099 20.8056 28.0071 21.1237 28.0071ZM24.409 28.7935C24.3501 28.7935 24.303 28.7728 24.2676 28.7316C24.2382 28.6904 24.2293 28.6403 24.2411 28.5814L25.1247 24.4108C25.1365 24.3519 25.1659 24.3018 25.2131 24.2606C25.2661 24.2194 25.322 24.1987 25.3809 24.1987H26.0701C26.1291 24.1987 26.1732 24.2194 26.2027 24.2606C26.2321 24.3018 26.241 24.3519 26.2292 24.4108L26.1673 24.7112C26.2793 24.5993 26.3941 24.4992 26.5119 24.4108C26.6357 24.3166 26.777 24.2429 26.9361 24.1899C27.0951 24.1369 27.2807 24.1104 27.4927 24.1104C27.8344 24.1104 28.1142 24.1811 28.3322 24.3225C28.556 24.4579 28.7062 24.6494 28.7828 24.8968C28.9713 24.6612 29.1892 24.4727 29.4367 24.3313C29.6841 24.184 29.9727 24.1104 30.3026 24.1104C30.6207 24.1104 30.8946 24.1811 31.1243 24.3225C31.36 24.4638 31.5249 24.6788 31.6191 24.9675C31.7134 25.2502 31.7163 25.6096 31.628 26.0455L31.0801 28.5814C31.0684 28.6403 31.0389 28.6904 30.9918 28.7316C30.9447 28.7728 30.8916 28.7935 30.8327 28.7935H30.1082C30.0493 28.7935 30.0022 28.7728 29.9668 28.7316C29.9374 28.6904 29.9285 28.6403 29.9403 28.5814L30.4616 26.1162C30.5205 25.8511 30.5323 25.642 30.497 25.4888C30.4616 25.3298 30.388 25.2178 30.2761 25.153C30.17 25.0882 30.0404 25.0558 29.8873 25.0558C29.7518 25.0558 29.6075 25.0882 29.4543 25.153C29.3071 25.2178 29.1686 25.3298 29.039 25.4888C28.9153 25.642 28.827 25.8511 28.774 26.1162L28.2438 28.5814C28.232 28.6403 28.2026 28.6904 28.1554 28.7316C28.1083 28.7728 28.0553 28.7935 27.9964 28.7935H27.2718C27.207 28.7935 27.157 28.7728 27.1216 28.7316C27.0922 28.6904 27.0833 28.6403 27.0951 28.5814L27.6253 26.1162C27.6783 25.8511 27.6842 25.642 27.643 25.4888C27.6076 25.3298 27.5369 25.2178 27.4309 25.153C27.3249 25.0882 27.1953 25.0558 27.0421 25.0558C26.9125 25.0558 26.7711 25.0912 26.618 25.1619C26.4648 25.2267 26.3234 25.3356 26.1939 25.4888C26.0701 25.642 25.9818 25.8511 25.9288 26.1162L25.3986 28.5814C25.3868 28.6403 25.3574 28.6904 25.3103 28.7316C25.2631 28.7728 25.2101 28.7935 25.1512 28.7935H24.409ZM32.3906 28.7935C32.3317 28.7935 32.2846 28.7728 32.2493 28.7316C32.2198 28.6904 32.211 28.6403 32.2227 28.5814L33.1063 24.4108C33.1181 24.3519 33.1476 24.3018 33.1947 24.2606C33.2477 24.2194 33.3037 24.1987 33.3626 24.1987H34.0518C34.1107 24.1987 34.1549 24.2194 34.1843 24.2606C34.2138 24.3018 34.2226 24.3519 34.2108 24.4108L34.149 24.7112C34.2609 24.5993 34.3758 24.4992 34.4936 24.4108C34.6173 24.3166 34.7587 24.2429 34.9177 24.1899C35.0768 24.1369 35.2623 24.1104 35.4744 24.1104C35.816 24.1104 36.0959 24.1811 36.3138 24.3225C36.5377 24.4579 36.6879 24.6494 36.7644 24.8968C36.9529 24.6612 37.1709 24.4727 37.4183 24.3313C37.6657 24.184 37.9544 24.1104 38.2842 24.1104C38.6023 24.1104 38.8762 24.1811 39.106 24.3225C39.3416 24.4638 39.5065 24.6788 39.6008 24.9675C39.695 25.2502 39.698 25.6096 39.6096 26.0455L39.0618 28.5814C39.05 28.6403 39.0206 28.6904 38.9734 28.7316C38.9263 28.7728 38.8733 28.7935 38.8144 28.7935H38.0898C38.0309 28.7935 37.9838 28.7728 37.9485 28.7316C37.919 28.6904 37.9102 28.6403 37.922 28.5814L38.4433 26.1162C38.5022 25.8511 38.514 25.642 38.4786 25.4888C38.4433 25.3298 38.3696 25.2178 38.2577 25.153C38.1517 25.0882 38.0221 25.0558 37.8689 25.0558C37.7335 25.0558 37.5891 25.0882 37.436 25.153C37.2887 25.2178 37.1503 25.3298 37.0207 25.4888C36.897 25.642 36.8086 25.8511 36.7556 26.1162L36.2254 28.5814C36.2137 28.6403 36.1842 28.6904 36.1371 28.7316C36.09 28.7728 36.0369 28.7935 35.978 28.7935H35.2535C35.1887 28.7935 35.1386 28.7728 35.1033 28.7316C35.0738 28.6904 35.065 28.6403 35.0768 28.5814L35.6069 26.1162C35.6599 25.8511 35.6658 25.642 35.6246 25.4888C35.5893 25.3298 35.5186 25.2178 35.4125 25.153C35.3065 25.0882 35.1769 25.0558 35.0238 25.0558C34.8942 25.0558 34.7528 25.0912 34.5996 25.1619C34.4465 25.2267 34.3051 25.3356 34.1755 25.4888C34.0518 25.642 33.9634 25.8511 33.9104 26.1162L33.3803 28.5814C33.3685 28.6403 33.339 28.6904 33.2919 28.7316C33.2448 28.7728 33.1918 28.7935 33.1329 28.7935H32.3906ZM41.9276 28.8818C41.5447 28.8818 41.2325 28.8023 40.991 28.6432C40.7495 28.4783 40.5875 28.2486 40.505 27.954C40.4284 27.6536 40.4314 27.3002 40.5138 26.8937L41.044 24.4108C41.0558 24.3519 41.0852 24.3018 41.1324 24.2606C41.1854 24.2194 41.2413 24.1987 41.3002 24.1987H42.0778C42.1367 24.1987 42.1809 24.2194 42.2104 24.2606C42.2398 24.3018 42.2486 24.3519 42.2369 24.4108L41.7244 26.8407C41.6714 27.0822 41.6537 27.2855 41.6714 27.4504C41.6949 27.6094 41.7627 27.7302 41.8746 27.8127C41.9865 27.8951 42.1603 27.9364 42.3959 27.9364C42.714 27.9364 42.9909 27.8392 43.2265 27.6448C43.4621 27.4504 43.6153 27.1824 43.686 26.8407L44.2073 24.4108C44.2191 24.3519 44.2485 24.3018 44.2956 24.2606C44.3487 24.2194 44.4046 24.1987 44.4635 24.1987H45.2323C45.2971 24.1987 45.3442 24.2194 45.3736 24.2606C45.4031 24.3018 45.4119 24.3519 45.4001 24.4108L44.5165 28.5814C44.5048 28.6403 44.4753 28.6904 44.4282 28.7316C44.3811 28.7728 44.3251 28.7935 44.2603 28.7935H43.5446C43.4857 28.7935 43.4385 28.7728 43.4032 28.7316C43.3738 28.6904 43.3649 28.6403 43.3767 28.5814L43.4474 28.2191C43.3178 28.3546 43.1823 28.4724 43.0409 28.5726C42.9054 28.6727 42.7493 28.7493 42.5726 28.8023C42.4018 28.8553 42.1868 28.8818 41.9276 28.8818ZM45.8603 28.7935C45.8014 28.7935 45.7543 28.7728 45.719 28.7316C45.6895 28.6904 45.6807 28.6403 45.6925 28.5814L46.5761 24.4108C46.5878 24.3519 46.6173 24.3018 46.6644 24.2606C46.7174 24.2194 46.7734 24.1987 46.8323 24.1987H47.5569C47.6158 24.1987 47.6599 24.2194 47.6894 24.2606C47.7188 24.3018 47.7277 24.3519 47.7159 24.4108L47.6364 24.7731C47.8249 24.5846 48.0458 24.4285 48.2991 24.3048C48.5583 24.1752 48.8498 24.1104 49.1738 24.1104C49.5744 24.1104 49.8954 24.1929 50.137 24.3578C50.3785 24.5168 50.5375 24.7436 50.6141 25.0382C50.6966 25.3327 50.6936 25.6861 50.6053 26.0985L50.0751 28.5814C50.0633 28.6403 50.0339 28.6904 49.9867 28.7316C49.9396 28.7728 49.8837 28.7935 49.8189 28.7935H49.0413C48.9824 28.7935 48.9353 28.7728 48.8999 28.7316C48.8705 28.6904 48.8616 28.6403 48.8734 28.5814L49.3859 26.1515C49.4625 25.7922 49.4536 25.5212 49.3594 25.3386C49.271 25.1501 49.056 25.0558 48.7144 25.0558C48.3786 25.0558 48.0929 25.153 47.8573 25.3474C47.6275 25.5418 47.4744 25.8098 47.3978 26.1515L46.8853 28.5814C46.8735 28.6403 46.8441 28.6904 46.797 28.7316C46.7498 28.7728 46.6968 28.7935 46.6379 28.7935H45.8603ZM51.3742 28.7935C51.3153 28.7935 51.2681 28.7728 51.2328 28.7316C51.2034 28.6904 51.1945 28.6403 51.2063 28.5814L52.0899 24.4108C52.1017 24.3519 52.1311 24.3018 52.1783 24.2606C52.2313 24.2194 52.2872 24.1987 52.3461 24.1987H53.0795C53.1443 24.1987 53.1914 24.2194 53.2209 24.2606C53.2503 24.3018 53.2592 24.3519 53.2474 24.4108L52.3638 28.5814C52.352 28.6403 52.3226 28.6904 52.2754 28.7316C52.2283 28.7728 52.1724 28.7935 52.1076 28.7935H51.3742ZM52.4698 23.4389C52.4109 23.4389 52.3638 23.4212 52.3285 23.3858C52.299 23.3446 52.2902 23.2916 52.302 23.2268L52.4433 22.5906C52.4551 22.5317 52.4846 22.4816 52.5317 22.4404C52.5788 22.3992 52.6348 22.3785 52.6996 22.3785H53.5036C53.5626 22.3785 53.6097 22.3992 53.645 22.4404C53.6804 22.4816 53.6921 22.5317 53.6804 22.5906L53.539 23.2268C53.5272 23.2916 53.4948 23.3446 53.4418 23.3858C53.3947 23.4212 53.3417 23.4389 53.2828 23.4389H52.4698ZM55.6127 28.7935C55.2121 28.7935 54.8999 28.7316 54.6761 28.6079C54.4522 28.4842 54.3079 28.3016 54.2431 28.0601C54.1783 27.8127 54.1842 27.5064 54.2608 27.1411L54.6937 25.1354H53.9957C53.9368 25.1354 53.8897 25.1147 53.8543 25.0735C53.8249 25.0323 53.816 24.9822 53.8278 24.9233L53.9338 24.4108C53.9456 24.3519 53.9751 24.3018 54.0222 24.2606C54.0752 24.2194 54.1341 24.1987 54.1989 24.1987H54.8881L55.2062 22.732C55.218 22.6731 55.2475 22.623 55.2946 22.5818C55.3417 22.5405 55.3947 22.5199 55.4536 22.5199H56.1694C56.2342 22.5199 56.2813 22.5405 56.3107 22.5818C56.3461 22.623 56.3579 22.6731 56.3461 22.732L56.028 24.1987H57.1325C57.1914 24.1987 57.2356 24.2194 57.265 24.2606C57.3004 24.3018 57.3121 24.3519 57.3004 24.4108L57.1943 24.9233C57.1825 24.9822 57.1501 25.0323 57.0971 25.0735C57.05 25.1147 56.997 25.1354 56.9381 25.1354H55.8336L55.4271 27.0528C55.3918 27.2118 55.3712 27.3503 55.3653 27.4681C55.3653 27.58 55.3977 27.6683 55.4625 27.7331C55.5273 27.792 55.6421 27.8215 55.8071 27.8215H56.4433C56.5081 27.8215 56.5552 27.8421 56.5846 27.8834C56.6141 27.9246 56.6229 27.9747 56.6112 28.0336L56.4963 28.5814C56.4845 28.6403 56.4551 28.6904 56.4079 28.7316C56.3608 28.7728 56.3048 28.7935 56.24 28.7935H55.6127ZM57.6879 30.4723C57.6172 30.4723 57.57 30.4428 57.5465 30.3839C57.5229 30.325 57.5347 30.2602 57.5818 30.1895L58.6598 28.493L57.8027 24.4462C57.7909 24.3814 57.8027 24.3254 57.8381 24.2783C57.8734 24.2253 57.9353 24.1987 58.0236 24.1987H58.6863C58.757 24.1987 58.8071 24.2164 58.8365 24.2518C58.866 24.2812 58.8837 24.3195 58.8895 24.3666L59.4816 27.2648L61.3194 24.3666C61.3489 24.3195 61.3842 24.2812 61.4255 24.2518C61.4726 24.2164 61.5315 24.1987 61.6022 24.1987H62.3621C62.421 24.1987 62.4652 24.2253 62.4946 24.2783C62.53 24.3254 62.527 24.3873 62.4858 24.4638L58.7128 30.3044C58.6834 30.3515 58.6451 30.3898 58.598 30.4193C58.5567 30.4546 58.5008 30.4723 58.4301 30.4723H57.6879ZM64.7342 28.7935C64.6694 28.7935 64.6193 28.7728 64.584 28.7316C64.5545 28.6904 64.5457 28.6403 64.5575 28.5814L65.7857 22.8292C65.7974 22.7644 65.8269 22.7114 65.874 22.6701C65.9211 22.6289 65.9771 22.6083 66.0419 22.6083H68.5336C68.9696 22.6083 69.3289 22.6819 69.6116 22.8292C69.9003 22.9706 70.1035 23.1679 70.2213 23.4212C70.3391 23.6745 70.3627 23.969 70.292 24.3048C70.239 24.5463 70.1536 24.7495 70.0358 24.9145C69.9238 25.0794 69.8001 25.2149 69.6646 25.3209C69.5292 25.4211 69.3996 25.4976 69.2759 25.5507C69.482 25.6685 69.647 25.8481 69.7707 26.0896C69.9003 26.3312 69.9297 26.6228 69.859 26.9644C69.7825 27.3179 69.647 27.633 69.4526 27.9099C69.2582 28.1867 68.9961 28.4047 68.6662 28.5637C68.3363 28.7169 67.9299 28.7935 67.4468 28.7935H64.7342ZM65.9359 27.8568H67.4115C67.7178 27.8568 67.977 27.7714 68.189 27.6006C68.4011 27.4239 68.5336 27.2118 68.5867 26.9644C68.6397 26.7052 68.6102 26.4902 68.4983 26.3194C68.3864 26.1486 68.1537 26.0631 67.8003 26.0631H66.3247L65.9359 27.8568ZM66.519 25.1442H67.8798C68.1802 25.1442 68.4306 25.0706 68.6308 24.9233C68.8311 24.7701 68.9607 24.5728 69.0196 24.3313C69.0726 24.0839 69.0432 23.8924 68.9313 23.757C68.8193 23.6156 68.6102 23.5449 68.3039 23.5449H66.8636L66.519 25.1442ZM72.2667 28.8818C71.8838 28.8818 71.5716 28.8023 71.33 28.6432C71.0885 28.4783 70.9265 28.2486 70.8441 27.954C70.7675 27.6536 70.7704 27.3002 70.8529 26.8937L71.3831 24.4108C71.3948 24.3519 71.4243 24.3018 71.4714 24.2606C71.5244 24.2194 71.5804 24.1987 71.6393 24.1987H72.4169C72.4758 24.1987 72.52 24.2194 72.5494 24.2606C72.5789 24.3018 72.5877 24.3519 72.5759 24.4108L72.0634 26.8407C72.0104 27.0822 71.9927 27.2855 72.0104 27.4504C72.034 27.6094 72.1017 27.7302 72.2136 27.8127C72.3256 27.8951 72.4993 27.9364 72.735 27.9364C73.0531 27.9364 73.3299 27.8392 73.5655 27.6448C73.8012 27.4504 73.9543 27.1824 74.025 26.8407L74.5463 24.4108C74.5581 24.3519 74.5876 24.3018 74.6347 24.2606C74.6877 24.2194 74.7437 24.1987 74.8026 24.1987H75.5713C75.6361 24.1987 75.6832 24.2194 75.7127 24.2606C75.7421 24.3018 75.751 24.3519 75.7392 24.4108L74.8556 28.5814C74.8438 28.6403 74.8144 28.6904 74.7672 28.7316C74.7201 28.7728 74.6642 28.7935 74.5994 28.7935H73.8836C73.8247 28.7935 73.7776 28.7728 73.7423 28.7316C73.7128 28.6904 73.704 28.6403 73.7158 28.5814L73.7864 28.2191C73.6569 28.3546 73.5214 28.4724 73.38 28.5726C73.2445 28.6727 73.0884 28.7493 72.9117 28.8023C72.7409 28.8553 72.5258 28.8818 72.2667 28.8818ZM76.1996 28.7935C76.1407 28.7935 76.0936 28.7728 76.0582 28.7316C76.0288 28.6904 76.0199 28.6403 76.0317 28.5814L76.9153 24.4108C76.9271 24.3519 76.9565 24.3018 77.0037 24.2606C77.0567 24.2194 77.1126 24.1987 77.1715 24.1987H77.9049C77.9697 24.1987 78.0169 24.2194 78.0463 24.2606C78.0758 24.3018 78.0846 24.3519 78.0728 24.4108L77.1892 28.5814C77.1774 28.6403 77.148 28.6904 77.1009 28.7316C77.0537 28.7728 76.9978 28.7935 76.933 28.7935H76.1996ZM77.2953 23.4389C77.2363 23.4389 77.1892 23.4212 77.1539 23.3858C77.1244 23.3446 77.1156 23.2916 77.1274 23.2268L77.2687 22.5906C77.2805 22.5317 77.31 22.4816 77.3571 22.4404C77.4042 22.3992 77.4602 22.3785 77.525 22.3785H78.3291C78.388 22.3785 78.4351 22.3992 78.4704 22.4404C78.5058 22.4816 78.5176 22.5317 78.5058 22.5906L78.3644 23.2268C78.3526 23.2916 78.3202 23.3446 78.2672 23.3858C78.2201 23.4212 78.1671 23.4389 78.1082 23.4389H77.2953ZM78.5293 28.7935C78.4704 28.7935 78.4233 28.7728 78.388 28.7316C78.3585 28.6904 78.3497 28.6403 78.3615 28.5814L79.6073 22.732C79.6191 22.6731 79.6486 22.623 79.6957 22.5818C79.7428 22.5405 79.7958 22.5199 79.8547 22.5199H80.5881C80.6529 22.5199 80.7001 22.5405 80.7295 22.5818C80.7648 22.623 80.7766 22.6731 80.7648 22.732L79.519 28.5814C79.5072 28.6403 79.4777 28.6904 79.4306 28.7316C79.3835 28.7728 79.3275 28.7935 79.2627 28.7935H78.5293ZM82.7763 28.7935C82.3758 28.7935 82.0636 28.7316 81.8397 28.6079C81.6159 28.4842 81.4715 28.3016 81.4067 28.0601C81.3419 27.8127 81.3478 27.5064 81.4244 27.1411L81.8574 25.1354H81.1593C81.1004 25.1354 81.0533 25.1147 81.018 25.0735C80.9885 25.0323 80.9797 24.9822 80.9914 24.9233L81.0975 24.4108C81.1093 24.3519 81.1387 24.3018 81.1858 24.2606C81.2389 24.2194 81.2978 24.1987 81.3626 24.1987H82.0518L82.3699 22.732C82.3816 22.6731 82.4111 22.623 82.4582 22.5818C82.5053 22.5405 82.5584 22.5199 82.6173 22.5199H83.333C83.3978 22.5199 83.4449 22.5405 83.4744 22.5818C83.5097 22.623 83.5215 22.6731 83.5097 22.732L83.1916 24.1987H84.2961C84.355 24.1987 84.3992 24.2194 84.4286 24.2606C84.464 24.3018 84.4758 24.3519 84.464 24.4108L84.358 24.9233C84.3462 24.9822 84.3138 25.0323 84.2608 25.0735C84.2136 25.1147 84.1606 25.1354 84.1017 25.1354H82.9972L82.5908 27.0528C82.5554 27.2118 82.5348 27.3503 82.5289 27.4681C82.5289 27.58 82.5613 27.6683 82.6261 27.7331C82.6909 27.792 82.8058 27.8215 82.9707 27.8215H83.6069C83.6717 27.8215 83.7188 27.8421 83.7483 27.8834C83.7777 27.9246 83.7866 27.9747 83.7748 28.0336L83.6599 28.5814C83.6481 28.6403 83.6187 28.6904 83.5716 28.7316C83.5244 28.7728 83.4685 28.7935 83.4037 28.7935H82.7763Z" fill="#1F2937"/>
</g>
<defs>
<clipPath id="clip0_1287_15019">
<rect width="143.953" height="31.11" fill="white" transform="translate(0.0234375 0.444946)"/>
</clipPath>
</defs>
</svg>
