<svg width="782" height="114" viewBox="0 0 782 114" fill="none" xmlns="http://www.w3.org/2000/svg">
<rect x="522" y="1" width="260" height="112" rx="56" fill="#FF0000"/>
<path d="M580.311 84C579.724 84 579.244 83.8133 578.871 83.44C578.497 83.0667 578.311 82.5867 578.311 82V30C578.311 29.4133 578.497 28.9333 578.871 28.56C579.244 28.1867 579.724 28 580.311 28H589.031C589.617 28 590.097 28.1867 590.471 28.56C590.844 28.9333 591.031 29.4133 591.031 30V50H612.711V30C612.711 29.4133 612.897 28.9333 613.271 28.56C613.644 28.1867 614.124 28 614.711 28H623.431C624.017 28 624.497 28.1867 624.871 28.56C625.244 28.9333 625.431 29.4133 625.431 30V82C625.431 82.5867 625.244 83.0667 624.871 83.44C624.497 83.8133 624.017 84 623.431 84H614.711C614.124 84 613.644 83.8133 613.271 83.44C612.897 83.0667 612.711 82.5867 612.711 82V61.36H591.031V82C591.031 82.5867 590.844 83.0667 590.471 83.44C590.097 83.8133 589.617 84 589.031 84H580.311ZM651.695 84.8C648.602 84.8 645.855 84.1067 643.455 82.72C641.108 81.28 639.268 79.2267 637.935 76.56C636.655 73.84 636.015 70.56 636.015 66.72V44.4C636.015 43.8133 636.202 43.3333 636.575 42.96C636.948 42.5867 637.402 42.4 637.935 42.4H646.415C647.002 42.4 647.482 42.5867 647.855 42.96C648.228 43.3333 648.415 43.8133 648.415 44.4V66.24C648.415 72.2133 651.028 75.2 656.255 75.2C658.762 75.2 660.735 74.4267 662.175 72.88C663.668 71.28 664.415 69.0667 664.415 66.24V44.4C664.415 43.8133 664.602 43.3333 664.975 42.96C665.348 42.5867 665.828 42.4 666.415 42.4H674.895C675.428 42.4 675.882 42.5867 676.255 42.96C676.628 43.3333 676.815 43.8133 676.815 44.4V82C676.815 82.5867 676.628 83.0667 676.255 83.44C675.882 83.8133 675.428 84 674.895 84H667.055C666.468 84 665.988 83.8133 665.615 83.44C665.242 83.0667 665.055 82.5867 665.055 82V78.88C663.668 80.8 661.882 82.2667 659.695 83.28C657.508 84.2933 654.842 84.8 651.695 84.8ZM711.044 84.8C708.004 84.8 705.47 84.2933 703.444 83.28C701.417 82.2133 699.764 80.88 698.484 79.28V82C698.484 82.5867 698.297 83.0667 697.924 83.44C697.55 83.8133 697.07 84 696.484 84H688.884C688.297 84 687.817 83.8133 687.444 83.44C687.07 83.0667 686.884 82.5867 686.884 82V29.2C686.884 28.6133 687.07 28.1333 687.444 27.76C687.817 27.3867 688.297 27.2 688.884 27.2H697.124C697.657 27.2 698.11 27.3867 698.484 27.76C698.857 28.1333 699.044 28.6133 699.044 29.2V46.64C700.377 45.1467 702.03 43.9467 704.004 43.04C705.977 42.08 708.324 41.6 711.044 41.6C713.817 41.6 716.217 42.08 718.244 43.04C720.324 43.9467 722.084 45.2533 723.524 46.96C724.964 48.6133 726.057 50.5867 726.804 52.88C727.604 55.1733 728.03 57.7067 728.084 60.48C728.137 61.44 728.164 62.3467 728.164 63.2C728.164 64 728.137 64.9067 728.084 65.92C727.977 68.7467 727.524 71.3333 726.724 73.68C725.977 75.9733 724.884 77.9733 723.444 79.68C722.057 81.3333 720.324 82.6133 718.244 83.52C716.217 84.3733 713.817 84.8 711.044 84.8ZM707.444 75.2C709.47 75.2 711.07 74.7733 712.244 73.92C713.417 73.0133 714.244 71.84 714.724 70.4C715.257 68.96 715.577 67.3867 715.684 65.68C715.79 64.0267 715.79 62.3733 715.684 60.72C715.577 59.0133 715.257 57.44 714.724 56C714.244 54.56 713.417 53.4133 712.244 52.56C711.07 51.6533 709.47 51.2 707.444 51.2C705.524 51.2 703.95 51.6267 702.724 52.48C701.55 53.3333 700.644 54.4267 700.004 55.76C699.417 57.04 699.097 58.4267 699.044 59.92C698.99 60.88 698.964 61.8667 698.964 62.88C698.964 63.8933 698.99 64.9067 699.044 65.92C699.15 67.52 699.47 69.0133 700.004 70.4C700.537 71.7867 701.417 72.9333 702.644 73.84C703.87 74.7467 705.47 75.2 707.444 75.2Z" fill="white"/>
<path d="M4.416 90.7084C3.712 90.7084 3.168 90.4844 2.784 90.0364C2.464 89.5244 2.368 88.9484 2.496 88.3084L15.744 25.9084C15.872 25.2044 16.224 24.6284 16.8 24.1804C17.376 23.7324 18.016 23.5084 18.72 23.5084H44.832C53.152 23.5084 59.264 25.4284 63.168 29.2684C67.072 33.0444 68.288 38.4204 66.816 45.3964C65.856 49.9404 63.936 53.7804 61.056 56.9164C58.24 60.0524 54.88 62.4204 50.976 64.0204L59.136 87.6364C59.2 87.8284 59.232 87.9884 59.232 88.1164C59.232 88.2444 59.2 88.4364 59.136 88.6924C59.072 89.2044 58.784 89.6844 58.272 90.1324C57.76 90.5164 57.248 90.7084 56.736 90.7084H43.968C42.752 90.7084 41.92 90.4204 41.472 89.8444C41.088 89.2044 40.8 88.6284 40.608 88.1164L34.176 66.9964H24.384L19.776 88.3084C19.648 88.9484 19.296 89.5244 18.72 90.0364C18.144 90.4844 17.504 90.7084 16.8 90.7084H4.416ZM27.168 53.3644H38.304C41.312 53.3644 43.712 52.6284 45.504 51.1564C47.296 49.6844 48.48 47.7004 49.056 45.2044C49.568 42.7084 49.248 40.6924 48.096 39.1564C47.008 37.6204 44.896 36.8524 41.76 36.8524H30.72L27.168 53.3644ZM89.5268 91.6684C84.5348 91.6684 80.3428 90.7724 76.9508 88.9804C73.6228 87.1244 71.3188 84.3724 70.0388 80.7244C68.8228 77.0764 68.6948 72.5964 69.6548 67.2844C69.7828 66.8364 69.9108 66.2604 70.0388 65.5564C70.1668 64.8524 70.2948 64.3084 70.4228 63.9244C71.7028 58.8684 73.7508 54.5484 76.5668 50.9644C79.3828 47.3164 82.8388 44.5644 86.9348 42.7084C91.0308 40.7884 95.5428 39.8284 100.471 39.8284C106.103 39.8284 110.519 40.9484 113.719 43.1884C116.919 45.4284 119.031 48.4684 120.055 52.3084C121.079 56.1484 121.111 60.5324 120.151 65.4604L119.671 67.7644C119.543 68.4684 119.159 69.0444 118.519 69.4924C117.943 69.9404 117.335 70.1644 116.695 70.1644H85.9748C85.9748 70.2284 85.9428 70.3244 85.8788 70.4524C85.8788 70.5804 85.8468 70.7084 85.7828 70.8364C85.4628 72.6924 85.4308 74.3884 85.6868 75.9244C85.9428 77.4604 86.5828 78.6764 87.6068 79.5724C88.6308 80.4684 90.0068 80.9164 91.7348 80.9164C93.0148 80.9164 94.1028 80.7244 94.9988 80.3404C95.9588 79.8924 96.7908 79.4124 97.4948 78.9004C98.1988 78.3244 98.7748 77.8444 99.2228 77.4604C99.9268 76.7564 100.471 76.3404 100.855 76.2124C101.239 76.0204 101.815 75.9244 102.583 75.9244H114.487C115.127 75.9244 115.607 76.1164 115.927 76.5004C116.247 76.8844 116.311 77.3964 116.119 78.0364C115.799 79.1244 114.967 80.4364 113.623 81.9724C112.343 83.5084 110.551 85.0444 108.247 86.5804C105.943 88.0524 103.223 89.2684 100.087 90.2284C96.9508 91.1884 93.4308 91.6684 89.5268 91.6684ZM87.9908 60.6604H104.215L104.311 60.4684C104.823 58.3564 104.887 56.5644 104.503 55.0924C104.183 53.5564 103.479 52.3724 102.391 51.5404C101.367 50.7084 99.9908 50.2924 98.2628 50.2924C96.5348 50.2924 94.9988 50.7084 93.6548 51.5404C92.3108 52.3724 91.1588 53.5564 90.1988 55.0924C89.3028 56.5644 88.5988 58.3564 88.0868 60.4684L87.9908 60.6604ZM147.793 90.7084C143.377 90.7084 139.729 90.0684 136.849 88.7884C134.033 87.4444 132.113 85.3964 131.089 82.6444C130.065 79.8284 130.001 76.2124 130.897 71.7964L134.833 53.3644H127.345C126.641 53.3644 126.097 53.1404 125.713 52.6924C125.393 52.2444 125.297 51.6684 125.425 50.9644L127.057 43.1884C127.185 42.4844 127.537 41.9084 128.113 41.4604C128.689 41.0124 129.297 40.7884 129.937 40.7884H137.521L140.881 24.9484C141.009 24.2444 141.361 23.6684 141.937 23.2204C142.513 22.7724 143.121 22.5484 143.761 22.5484H154.897C155.601 22.5484 156.113 22.7724 156.433 23.2204C156.817 23.6684 156.945 24.2444 156.817 24.9484L153.457 40.7884H165.457C166.161 40.7884 166.673 41.0124 166.993 41.4604C167.377 41.9084 167.505 42.4844 167.377 43.1884L165.745 50.9644C165.617 51.6684 165.265 52.2444 164.689 52.6924C164.113 53.1404 163.505 53.3644 162.865 53.3644H150.769L147.121 70.4524C146.865 71.8604 146.737 73.1084 146.737 74.1964C146.737 75.2844 147.057 76.1164 147.697 76.6924C148.337 77.2684 149.425 77.5564 150.961 77.5564H158.545C159.249 77.5564 159.761 77.7804 160.081 78.2284C160.401 78.6764 160.497 79.2524 160.369 79.9564L158.641 88.3084C158.513 88.9484 158.161 89.5244 157.585 90.0364C157.073 90.4844 156.465 90.7084 155.761 90.7084H147.793ZM168.425 90.7084C167.721 90.7084 167.177 90.4844 166.793 90.0364C166.409 89.5244 166.28 88.9484 166.409 88.3084L176.009 43.1884C176.137 42.5484 176.489 42.0044 177.065 41.5564C177.641 41.0444 178.281 40.7884 178.984 40.7884H190.025C190.729 40.7884 191.241 41.0444 191.561 41.5564C191.945 42.0044 192.073 42.5484 191.945 43.1884L191.177 47.0284C192.713 45.1084 194.633 43.6044 196.937 42.5164C199.241 41.3644 202.121 40.7884 205.577 40.7884H210.953C211.657 40.7884 212.169 41.0124 212.489 41.4604C212.809 41.9084 212.905 42.4844 212.777 43.1884L210.761 53.0764C210.633 53.7164 210.281 54.2924 209.705 54.8044C209.129 55.2524 208.489 55.4764 207.785 55.4764H198.569C195.881 55.4764 193.673 56.2124 191.945 57.6844C190.281 59.0924 189.129 61.1084 188.489 63.7324L183.305 88.3084C183.177 88.9484 182.825 89.5244 182.249 90.0364C181.673 90.4844 181.033 90.7084 180.329 90.7084H168.425ZM233.525 91.6684C228.405 91.6684 224.117 90.8044 220.661 89.0764C217.205 87.3484 214.709 84.8844 213.173 81.6844C211.701 78.4204 211.317 74.5484 212.021 70.0684C212.149 68.7884 212.373 67.3484 212.693 65.7484C213.077 64.0844 213.461 62.6444 213.845 61.4284C215.061 56.8844 216.917 53.0124 219.413 49.8124C221.909 46.6124 225.109 44.1484 229.013 42.4204C232.981 40.6924 237.621 39.8284 242.933 39.8284C247.989 39.8284 252.245 40.6924 255.701 42.4204C259.157 44.1484 261.685 46.6124 263.285 49.8124C264.885 53.0124 265.333 56.8844 264.629 61.4284C264.373 62.6444 264.085 64.0844 263.765 65.7484C263.445 67.3484 263.125 68.7884 262.805 70.0684C261.589 74.5484 259.765 78.4204 257.333 81.6844C254.901 84.8844 251.733 87.3484 247.829 89.0764C243.925 90.8044 239.157 91.6684 233.525 91.6684ZM234.965 79.9564C237.845 79.9564 240.181 79.0924 241.973 77.3644C243.765 75.6364 245.109 73.0444 246.005 69.5884C246.261 68.6284 246.549 67.3484 246.869 65.7484C247.253 64.1484 247.509 62.8684 247.637 61.9084C248.213 58.5164 248.053 55.9564 247.157 54.2284C246.261 52.4364 244.373 51.5404 241.493 51.5404C238.741 51.5404 236.469 52.4364 234.677 54.2284C232.885 55.9564 231.541 58.5164 230.645 61.9084C230.389 62.8684 230.069 64.1484 229.685 65.7484C229.365 67.3484 229.141 68.6284 229.013 69.5884C228.437 73.0444 228.565 75.6364 229.397 77.3644C230.293 79.0924 232.149 79.9564 234.965 79.9564ZM271.385 90.7084C270.745 90.7084 270.233 90.4844 269.849 90.0364C269.465 89.5244 269.337 88.9484 269.465 88.3084L282.713 25.9084C282.841 25.2044 283.193 24.6284 283.769 24.1804C284.345 23.7324 284.953 23.5084 285.593 23.5084H311.129C315.033 23.5084 318.553 23.9564 321.689 24.8524C324.889 25.7484 327.545 27.1244 329.657 28.9804C331.769 30.8364 333.241 33.1724 334.073 35.9884C334.905 38.7404 334.937 41.9724 334.169 45.6844C332.633 53.0444 329.401 58.4844 324.473 62.0044C319.545 65.5244 312.953 67.2844 304.697 67.2844H291.737L287.321 88.3084C287.193 88.9484 286.841 89.5244 286.265 90.0364C285.753 90.4844 285.145 90.7084 284.441 90.7084H271.385ZM294.329 54.0364H305.369C307.929 54.0364 310.233 53.3324 312.281 51.9244C314.393 50.5164 315.769 48.3724 316.409 45.4924C316.729 43.8284 316.793 42.3564 316.601 41.0764C316.409 39.7964 315.737 38.7724 314.585 38.0044C313.497 37.2364 311.801 36.8524 309.497 36.8524H297.977L294.329 54.0364ZM362.849 91.6684C356.769 91.6684 351.745 90.6764 347.777 88.6924C343.873 86.6444 341.121 83.7004 339.521 79.8604C337.921 75.9564 337.601 71.2204 338.561 65.6524C339.073 62.9004 339.649 59.9884 340.289 56.9164C340.993 53.7804 341.665 50.8044 342.305 47.9884C343.649 42.5484 345.953 37.9404 349.217 34.1644C352.481 30.3884 356.513 27.5084 361.313 25.5244C366.177 23.5404 371.585 22.5484 377.537 22.5484C382.337 22.5484 386.465 23.1564 389.921 24.3724C393.377 25.5244 396.161 27.0924 398.273 29.0764C400.385 31.0604 401.857 33.2364 402.689 35.6044C403.521 37.9724 403.745 40.3084 403.361 42.6124C403.233 43.1884 402.913 43.6684 402.401 44.0524C401.953 44.4364 401.409 44.6284 400.769 44.6284H386.753C386.113 44.6284 385.633 44.5324 385.313 44.3404C384.993 44.0844 384.737 43.7324 384.545 43.2844C384.353 42.3244 383.937 41.3324 383.297 40.3084C382.657 39.2204 381.665 38.2924 380.321 37.5244C378.977 36.7564 377.089 36.3724 374.657 36.3724C371.009 36.3724 367.937 37.3324 365.441 39.2524C362.945 41.1724 361.153 44.2444 360.065 48.4684C359.425 51.1564 358.785 53.9084 358.145 56.7244C357.569 59.5404 357.025 62.3564 356.513 65.1724C355.745 69.6524 356.225 72.8844 357.953 74.8684C359.745 76.8524 362.465 77.8444 366.113 77.8444C368.481 77.8444 370.689 77.4284 372.737 76.5964C374.849 75.7644 376.641 74.4844 378.113 72.7564C379.585 70.9644 380.577 68.6924 381.089 65.9404L381.473 64.1164H372.449C371.745 64.1164 371.201 63.8924 370.817 63.4444C370.497 62.9324 370.401 62.3244 370.529 61.6204L372.065 54.5164C372.193 53.8124 372.545 53.2364 373.121 52.7884C373.697 52.2764 374.337 52.0204 375.041 52.0204H399.233C399.937 52.0204 400.449 52.2764 400.769 52.7884C401.153 53.2364 401.281 53.8124 401.153 54.5164L398.849 65.4604C397.697 70.9644 395.425 75.6684 392.033 79.5724C388.705 83.4764 384.513 86.4844 379.457 88.5964C374.465 90.6444 368.929 91.6684 362.849 91.6684ZM405.447 90.7084C404.807 90.7084 404.295 90.4844 403.911 90.0364C403.527 89.5244 403.399 88.9484 403.527 88.3084L416.775 25.9084C416.903 25.2044 417.255 24.6284 417.831 24.1804C418.407 23.7324 419.015 23.5084 419.655 23.5084H463.815C464.519 23.5084 465.031 23.7324 465.351 24.1804C465.735 24.6284 465.863 25.2044 465.735 25.9084L463.719 35.6044C463.591 36.3084 463.239 36.8844 462.663 37.3324C462.151 37.7804 461.543 38.0044 460.839 38.0044H431.175L428.199 52.1164H455.847C456.551 52.1164 457.063 52.3724 457.383 52.8844C457.767 53.3324 457.895 53.9084 457.767 54.6124L455.751 64.2124C455.623 64.8524 455.271 65.4284 454.695 65.9404C454.119 66.3884 453.479 66.6124 452.775 66.6124H425.127L420.423 88.3084C420.295 88.9484 419.943 89.5244 419.367 90.0364C418.855 90.4844 418.247 90.7084 417.543 90.7084H405.447Z" fill="black"/>
</svg>
