<svg width="400" height="400" viewBox="0 0 400 400" fill="none" xmlns="http://www.w3.org/2000/svg">
<path d="M200 0L211.511 24.3768L226.105 1.71103L234.336 27.3818L251.764 6.81483L256.573 33.3403L276.537 15.2241L277.843 42.1504L300 26.7949L297.78 53.6613L321.752 41.3293L316.045 67.6762L341.421 58.5786L332.324 83.9551L358.671 78.2477L346.339 102.22L373.205 100L357.85 122.157L384.776 123.463L366.66 143.427L393.185 148.236L372.618 165.664L398.289 173.895L375.623 188.489L400 200L375.623 211.511L398.289 226.105L372.618 234.336L393.185 251.764L366.66 256.573L384.776 276.537L357.85 277.843L373.205 300L346.339 297.78L358.671 321.752L332.324 316.045L341.421 341.421L316.045 332.324L321.752 358.671L297.78 346.339L300 373.205L277.843 357.85L276.537 384.776L256.573 366.66L251.764 393.185L234.336 372.618L226.105 398.289L211.511 375.623L200 400L188.489 375.623L173.895 398.289L165.664 372.618L148.236 393.185L143.427 366.66L123.463 384.776L122.157 357.85L100 373.205L102.22 346.339L78.2477 358.671L83.9551 332.324L58.5786 341.421L67.6762 316.045L41.3293 321.752L53.6613 297.78L26.7949 300L42.1504 277.843L15.2241 276.537L33.3403 256.573L6.81483 251.764L27.3818 234.336L1.71103 226.105L24.3768 211.511L0 200L24.3768 188.489L1.71103 173.895L27.3818 165.664L6.81483 148.236L33.3403 143.427L15.2241 123.463L42.1504 122.157L26.7949 100L53.6613 102.22L41.3293 78.2477L67.6762 83.9551L58.5786 58.5786L83.9551 67.6762L78.2477 41.3293L102.22 53.6613L100 26.7949L122.157 42.1504L123.463 15.2241L143.427 33.3403L148.236 6.81483L165.664 27.3818L173.895 1.71103L188.489 24.3768L200 0Z" fill="#FF0420"/>
</svg>